<?xml version="1.0" encoding="utf-8"?>
<!-- Generator: Adobe Illustrator 16.0.0, SVG Export Plug-In . SVG Version: 6.00 Build 0)  -->
<!DOCTYPE svg PUBLIC "-//W3C//DTD SVG 1.1//EN" "http://www.w3.org/Graphics/SVG/1.1/DTD/svg11.dtd">
<svg version="1.1" id="Layer_1" xmlns="http://www.w3.org/2000/svg" xmlns:xlink="http://www.w3.org/1999/xlink" x="0px" y="0px"
	 width="98px" height="47px" viewBox="0 0 98 47" enable-background="new 0 0 98 47" xml:space="preserve">
<path fill-rule="evenodd" clip-rule="evenodd" fill="#C8AFAC" d="M98,7.258c-5.207,3.74-9.274,8.158-12.381,13.461
	c-2.14,3.648-2.183,3.632,0.813,6.595c4.491,4.443,8.37,9.324,11.003,15.119c0.188,0.418,0.338,0.854,0.535,1.356
	c-3.934-0.729-7.712-1.53-11.525-2.116c-9.975-1.537-19.969-1.321-29.894,0.314c-8.588,1.417-17.112,3.23-25.67,4.832
	c-0.927,0.173-1.902,0.217-2.842,0.149c-2.761-0.206-3.563-1.7-2.583-4.274c0.293-0.766,0.332-2.027-0.113-2.566
	c-0.432-0.523-1.747-0.758-2.478-0.518c-2.841,0.933-5.591,2.137-8.397,3.175c-3.311,1.224-6.696,1.837-10.209,0.962
	C0.949,42.922,0,41.689,0,38.278C0.004,27.641,0.005,17.002,0.008,6.365c0-0.861,0-1.72,0-2.773C0.729,3.727,1.15,3.718,1.486,3.884
	c4.508,2.229,9.073,1.854,13.721,0.469c5.082-1.518,10.18-2.993,15.32-4.284c1.088-0.271,2.395,0.333,3.601,0.533
	c-0.829,0.851-1.55,1.86-2.516,2.513c-1.344,0.906-2.93,1.454-4.288,2.341C26.73,5.844,25.974,6.855,26.125,7.3
	c0.232,0.686,1.134,1.512,1.837,1.6c1.733,0.215,3.553,0.276,5.267-0.013c6.643-1.118,13.24-2.512,19.887-3.589
	C67.442,2.98,81.721,3.029,95.877,6.616C96.5,6.775,97.109,6.988,98,7.258z"/>
</svg>
